FFmpeg version SVN-r25716, Copyright (c) 2000-2010 the FFmpeg developers  built on Nov 10 2010 12:23:18 with gcc 4.1.2 20080704 (Red Hat 4.1.2-48)  configuration: --enable-libmp3lame --enable-shared --disable-mmx --arch=x86_64  libavutil     50.33. 0 / 50.33. 0  libavcore      0.12. 1 /  0.12. 1  libavcodec    52.94. 4 / 52.94. 4  libavformat   52.84. 0 / 52.84. 0  libavdevice   52. 2. 2 / 52. 2. 2  libavfilter    1.59. 0 /  1.59. 0  libswscale     0.12. 0 /  0.12. 0Seems stream 0 codec frame rate differs from container frame rate: 600.00 (600/1) -> 15.00 (15/1)Input #0, mov,mp4,m4a,3gp,3g2,mj2, from '/RAID10/data/converted_video_files/12822.mov':  Duration: 00:00:31.46, start: 0.000000, bitrate: 1528 kb/s    Stream #0.0(eng): Video: rpza, rgb555le, 508x256, 1527 kb/s, 15 fps, 15 tbr, 600 tbn, 600 tbc[buffer @ 0x9c6b090] w:508 h:256 pixfmt:rgb555le[ffsink @ 0x9c69bd0] auto-inserting filter 'auto-inserted scaler 0' between the filter 'src' and the filter 'out'[scale @ 0x9c69ec0] w:508 h:256 fmt:rgb555le -> w:508 h:256 fmt:yuv420p flags:0x4Output #0, flv, to '/RAID10/data/converted_video_files/12822.flv':  Metadata:    encoder         : Lavf52.84.0    Stream #0.0(eng): Video: flv, yuv420p, 508x256, q=2-31, 600 kb/s, 1k tbn, 24 tbcStream mapping:  Stream #0.0 -> #0.0Press [q] to stop encodingframe=   76 fps=  0 q=2.8 size=     496kB time=5.04 bitrate= 805.2kbits/s    frame=  153 fps=146 q=3.8 size=     870kB time=10.17 bitrate= 701.0kbits/s    frame=  227 fps=148 q=3.4 size=    1222kB time=15.12 bitrate= 662.1kbits/s    frame=  285 fps=139 q=3.1 size=    1473kB time=18.96 bitrate= 636.5kbits/s    frame=  354 fps=139 q=4.6 size=    1860kB time=23.58 bitrate= 646.2kbits/s    frame=  413 fps=135 q=4.5 size=    2173kB time=27.50 bitrate= 647.2kbits/s    frame=  472 fps=133 q=3.9 Lsize=    2427kB time=31.46 bitrate= 631.9kbits/s    video:2419kB audio:0kB global headers:0kB muxing overhead 0.313354%